# xmcd CD database file
#
# Track frame offsets:
#	150
#	22105
#	58384
#	78842
#	92863
#	100237
#	100772
#	116916
#	137075
#	155926
#
# Disc length: 2330 seconds
#
# Revision: 0
# Processed by: cddbd v1.5.1PL2 Copyright (c) Steve Scherf et al.
# Submitted via: CDex 1.51
#
DISCID=8b09180a
DTITLE=東方らぢぉ - 月夜の下
DYEAR=2005
DGENRE=Game
TTITLE0=Marche des aisselles
TTITLE1=わきの下Ｒ＆Ｂ
TTITLE2=たいようのしたでおどるみこ
TTITLE3=博麗霊夢のアルバイト 〜 Korin's Trap
TTITLE4=これぞ腋の下を愛する者の叫び
TTITLE5=少女開腋中・・・
TTITLE6=Native Dance
TTITLE7=わきの下Ｘ 〜Phantom Retour
TTITLE8=少女綺想曲 〜DreamBattle
TTITLE9=天まで響け！腋の下！
EXTD=YEAR: 2005
EXTT0=
EXTT1=
EXTT2=
EXTT3=
EXTT4=
EXTT5=
EXTT6=
EXTT7=
EXTT8=
EXTT9=
PLAYORDER=
